<?xml version="1.0" encoding="UTF-8" standalone="no"?>
<!DOCTYPE svg PUBLIC "-//W3C//DTD SVG 1.1//EN"
 "http://www.w3.org/Graphics/SVG/1.1/DTD/svg11.dtd">
<!-- Generated by graphviz version 2.40.1 (20161225.0304)
 -->
<!-- Title: %3 Pages: 1 -->
<svg width="605pt" height="319pt"
 viewBox="0.00 0.00 605.00 318.50" xmlns="http://www.w3.org/2000/svg" xmlns:xlink="http://www.w3.org/1999/xlink">
<g id="graph0" class="graph" transform="scale(1 1) rotate(0) translate(36 282.5)">
<title>%3</title>
<polygon fill="#ffffff" stroke="transparent" points="-36,36 -36,-282.5 569,-282.5 569,36 -36,36"/>
<!-- OrgType -->
<g id="node1" class="node">
<title>OrgType</title>
<polygon fill="none" stroke="#000000" points="463,-161.5 463,-182.5 533,-182.5 533,-161.5 463,-161.5"/>
<text text-anchor="start" x="466" y="-169.3" font-family="Times,serif" font-style="italic" font-size="14.00" fill="#000000">OrgType</text>
<polygon fill="none" stroke="#000000" points="463,-140.5 463,-161.5 533,-161.5 533,-140.5 463,-140.5"/>
<text text-anchor="start" x="491" y="-147.3" font-family="Times,serif" font-size="14.00" fill="#000000">id</text>
<polygon fill="none" stroke="#000000" points="463,-119.5 463,-140.5 533,-140.5 533,-119.5 463,-119.5"/>
<text text-anchor="start" x="482" y="-126.3" font-family="Times,serif" font-size="14.00" fill="#000000">type</text>
</g>
<!-- Organization -->
<g id="node2" class="node">
<title>Organization</title>
<polygon fill="none" stroke="#000000" points="219,-203.5 219,-224.5 319,-224.5 319,-203.5 219,-203.5"/>
<text text-anchor="start" x="222" y="-211.3" font-family="Times,serif" font-style="italic" font-size="14.00" fill="#000000">Organization</text>
<polygon fill="none" stroke="#000000" points="219,-182.5 219,-203.5 319,-203.5 319,-182.5 219,-182.5"/>
<text text-anchor="start" x="262" y="-189.3" font-family="Times,serif" font-size="14.00" fill="#000000">id</text>
<polygon fill="none" stroke="#000000" points="219,-161.5 219,-182.5 319,-182.5 319,-161.5 219,-161.5"/>
<text text-anchor="start" x="249" y="-168.3" font-family="Times,serif" font-size="14.00" fill="#000000">name</text>
<polygon fill="none" stroke="#000000" points="219,-140.5 219,-161.5 319,-161.5 319,-140.5 219,-140.5"/>
<text text-anchor="start" x="230.5" y="-147.3" font-family="Times,serif" font-size="14.00" fill="#000000">orgtype_id</text>
</g>
<!-- Organization&#45;&gt;OrgType -->
<g id="edge1" class="edge">
<title>Organization:orgtype_id&#45;&gt;OrgType:id</title>
<path fill="none" stroke="#000000" d="M319,-150.5C379.5,-150.5 397.1064,-150.5 452.915,-150.5"/>
<polygon fill="#000000" stroke="#000000" points="453,-154.0001 463,-150.5 453,-147.0001 453,-154.0001"/>
</g>
<!-- Org_Emp -->
<g id="node3" class="node">
<title>Org_Emp</title>
<polygon fill="none" stroke="#000000" points=".5,-225.5 .5,-246.5 75.5,-246.5 75.5,-225.5 .5,-225.5"/>
<text text-anchor="start" x="3.5" y="-233.3" font-family="Times,serif" font-style="italic" font-size="14.00" fill="#000000">Org_Emp</text>
<polygon fill="none" stroke="#000000" points=".5,-204.5 .5,-225.5 75.5,-225.5 75.5,-204.5 .5,-204.5"/>
<text text-anchor="start" x="31" y="-211.3" font-family="Times,serif" font-size="14.00" fill="#000000">id</text>
<polygon fill="none" stroke="#000000" points=".5,-183.5 .5,-204.5 75.5,-204.5 75.5,-183.5 .5,-183.5"/>
<text text-anchor="start" x="15" y="-190.3" font-family="Times,serif" font-size="14.00" fill="#000000">org_id</text>
<polygon fill="none" stroke="#000000" points=".5,-162.5 .5,-183.5 75.5,-183.5 75.5,-162.5 .5,-162.5"/>
<text text-anchor="start" x="12" y="-169.3" font-family="Times,serif" font-size="14.00" fill="#000000">emp_id</text>
</g>
<!-- Org_Emp&#45;&gt;Organization -->
<g id="edge2" class="edge">
<title>Org_Emp:org_id&#45;&gt;Organization:id</title>
<path fill="none" stroke="#000000" d="M75,-193.5C135.5,-193.5 153.1064,-193.5 208.915,-193.5"/>
<polygon fill="#000000" stroke="#000000" points="209,-197.0001 219,-193.5 209,-190.0001 209,-197.0001"/>
</g>
<!-- Employee -->
<g id="node4" class="node">
<title>Employee</title>
<polygon fill="none" stroke="#000000" points="231,-83.5 231,-104.5 308,-104.5 308,-83.5 231,-83.5"/>
<text text-anchor="start" x="234" y="-91.3" font-family="Times,serif" font-style="italic" font-size="14.00" fill="#000000">Employee</text>
<polygon fill="none" stroke="#000000" points="231,-62.5 231,-83.5 308,-83.5 308,-62.5 231,-62.5"/>
<text text-anchor="start" x="262.5" y="-69.3" font-family="Times,serif" font-size="14.00" fill="#000000">id</text>
<polygon fill="none" stroke="#000000" points="231,-41.5 231,-62.5 308,-62.5 308,-41.5 231,-41.5"/>
<text text-anchor="start" x="249.5" y="-48.3" font-family="Times,serif" font-size="14.00" fill="#000000">name</text>
<polygon fill="none" stroke="#000000" points="231,-20.5 231,-41.5 308,-41.5 308,-20.5 231,-20.5"/>
<text text-anchor="start" x="242" y="-27.3" font-family="Times,serif" font-size="14.00" fill="#000000">addr_id</text>
</g>
<!-- Org_Emp&#45;&gt;Employee -->
<g id="edge3" class="edge">
<title>Org_Emp:emp_id&#45;&gt;Employee:id</title>
<path fill="none" stroke="#000000" d="M75,-172.5C153.588,-172.5 149.4243,-81.825 220.9008,-74.0326"/>
<polygon fill="#000000" stroke="#000000" points="221.1983,-77.5219 231,-73.5 220.8295,-70.5316 221.1983,-77.5219"/>
</g>
<!-- Address -->
<g id="node5" class="node">
<title>Address</title>
<polygon fill="none" stroke="#000000" points="466,-41.5 466,-62.5 531,-62.5 531,-41.5 466,-41.5"/>
<text text-anchor="start" x="469" y="-49.3" font-family="Times,serif" font-style="italic" font-size="14.00" fill="#000000">Address</text>
<polygon fill="none" stroke="#000000" points="466,-20.5 466,-41.5 531,-41.5 531,-20.5 466,-20.5"/>
<text text-anchor="start" x="491.5" y="-27.3" font-family="Times,serif" font-size="14.00" fill="#000000">id</text>
<polygon fill="none" stroke="#000000" points="466,.5 466,-20.5 531,-20.5 531,.5 466,.5"/>
<text text-anchor="start" x="477" y="-6.3" font-family="Times,serif" font-size="14.00" fill="#000000">street</text>
</g>
<!-- Employee&#45;&gt;Address -->
<g id="edge4" class="edge">
<title>Employee:addr_id&#45;&gt;Address:id</title>
<path fill="none" stroke="#000000" d="M308,-30.5C374.6563,-30.5 393.859,-30.5 455.6957,-30.5"/>
<polygon fill="#000000" stroke="#000000" points="456,-34.0001 466,-30.5 456,-27.0001 456,-34.0001"/>
</g>
<!-- Email -->
<g id="node6" class="node">
<title>Email</title>
<polygon fill="none" stroke="#000000" points="8.5,-105.5 8.5,-126.5 66.5,-126.5 66.5,-105.5 8.5,-105.5"/>
<text text-anchor="start" x="16.5" y="-113.3" font-family="Times,serif" font-style="italic" font-size="14.00" fill="#000000">Email</text>
<polygon fill="none" stroke="#000000" points="8.5,-84.5 8.5,-105.5 66.5,-105.5 66.5,-84.5 8.5,-84.5"/>
<text text-anchor="start" x="30.5" y="-91.3" font-family="Times,serif" font-size="14.00" fill="#000000">id</text>
<polygon fill="none" stroke="#000000" points="8.5,-63.5 8.5,-84.5 66.5,-84.5 66.5,-63.5 8.5,-63.5"/>
<text text-anchor="start" x="11.5" y="-70.3" font-family="Times,serif" font-size="14.00" fill="#000000">emp_id</text>
<polygon fill="none" stroke="#000000" points="8.5,-42.5 8.5,-63.5 66.5,-63.5 66.5,-42.5 8.5,-42.5"/>
<text text-anchor="start" x="17.5" y="-49.3" font-family="Times,serif" font-size="14.00" fill="#000000">email</text>
</g>
<!-- Email&#45;&gt;Employee -->
<g id="edge5" class="edge">
<title>Email:emp_id&#45;&gt;Employee:id</title>
<path fill="none" stroke="#000000" d="M66.5,-73.5C136.0412,-73.5 155.9732,-73.5 220.6698,-73.5"/>
<polygon fill="#000000" stroke="#000000" points="221,-77.0001 231,-73.5 221,-70.0001 221,-77.0001"/>
</g>
</g>
</svg>
